<svg width="24" height="24" viewBox="0 0 24 24" xmlns="http://www.w3.org/2000/svg" xmlns:xlink="http://www.w3.org/1999/xlink"><title>Icon/OutOfService</title><defs><path d="M10.166 4.99c1.01-1.962 2.654-1.952 3.659 0l6.41 12.456c1.01 1.963.043 3.554-2.173 3.554H5.93c-2.21 0-3.179-1.6-2.173-3.554l6.41-12.455z" id="a"/><filter x="-8.3%" y="-8.3%" width="116.7%" height="116.7%" filterUnits="objectBoundingBox" id="b"><feGaussianBlur stdDeviation="1" in="SourceAlpha" result="shadowBlurInner1"/><feOffset dy="1" in="shadowBlurInner1" result="shadowOffsetInner1"/><feComposite in="shadowOffsetInner1" in2="SourceAlpha" operator="arithmetic" k2="-1" k3="1" result="shadowInnerInner1"/><feColorMatrix values="0 0 0 0 0 0 0 0 0 0.541176471 0 0 0 0 0.807843137 0 0 0 0.4 0" in="shadowInnerInner1"/></filter></defs><g fill="none" fill-rule="evenodd"><g opacity=".2"><use fill="#008ACE" xlink:href="#a"/><use fill="#000" filter="url(#b)" xlink:href="#a"/></g><path d="M13.022 9.801v4.004c0 .43-.026.855-.077 1.277-.051.423-.119.853-.203 1.292h-1.47c-.084-.439-.152-.87-.203-1.291a10.578 10.578 0 0 1-.077-1.278V9.801h2.03zm-2.268 9.1a1.162 1.162 0 0 1 .354-.847 1.236 1.236 0 0 1 .878-.35 1.276 1.276 0 0 1 .875.35 1.159 1.159 0 0 1 .357.847 1.187 1.187 0 0 1-.357.854 1.229 1.229 0 0 1-.392.252c-.15.06-.31.091-.483.091-.177 0-.34-.03-.49-.091a1.175 1.175 0 0 1-.742-1.106z" fill="#008ACE"/></g></svg>