<svg width="34" height="36" viewBox="0 0 34 36" xmlns="http://www.w3.org/2000/svg"><g fill="none" fill-rule="evenodd"><path d="M3.387 3.998c-.891.343-1.445 1.203-1.363 2.12.433 4.818 2.64 20.298 13.359 27.485a2.263 2.263 0 0 0 2.505 0c10.719-7.188 12.925-22.668 13.358-27.486.082-.917-.47-1.776-1.363-2.119-6.744-2.592-19.753-2.591-26.496 0z" fill="#FFF"/><path d="M3.387 3.998c-.891.343-1.445 1.203-1.363 2.12.433 4.818 2.64 20.298 13.359 27.485a2.263 2.263 0 0 0 2.505 0c10.719-7.188 12.925-22.668 13.358-27.486.082-.917-.47-1.776-1.363-2.119-6.744-2.592-19.753-2.591-26.496 0zm-.718-1.867c7.206-2.769 20.726-2.77 27.932 0 1.715.66 2.8 2.346 2.637 4.165-.371 4.129-1.273 8.773-2.933 13.357-2.43 6.706-6.106 12.126-11.303 15.61a4.263 4.263 0 0 1-4.733.001C9.071 31.78 5.395 26.36 2.966 19.654 1.306 15.07.403 10.424.032 6.295-.13 4.48.955 2.791 2.67 2.131z" fill="#FFF"/><path d="M3.387 3.998c-.891.343-1.445 1.203-1.363 2.12.433 4.818 2.64 20.298 13.359 27.485a2.263 2.263 0 0 0 2.505 0c10.719-7.188 12.925-22.668 13.358-27.486.082-.917-.47-1.776-1.363-2.119-6.744-2.592-19.753-2.591-26.496 0zM17.12 30.935a.817.817 0 0 1-.973 0C9.055 25.628 5.761 15.418 4.81 6.865a.757.757 0 0 1 .546-.801c2.412-.733 11.686-3.094 22.545.013a.76.76 0 0 1 .56.805c-.95 8.553-4.26 18.756-11.34 24.052z" fill="#27A845"/><path d="M16.613 7.097c-3 0-5.945.35-8.471.916a.494.494 0 0 0-.392.552C8.758 15.209 11.322 22.9 16.272 27.6c.201.19.525.19.726 0 4.95-4.7 7.516-12.392 8.522-19.009a.495.495 0 0 0-.391-.551 38.497 38.497 0 0 0-8.516-.943zm.916 15.757a.498.498 0 0 1-.547.19.47.47 0 0 1-.347-.447V10.143a.46.46 0 0 1 .146-.333.499.499 0 0 1 .35-.134 36.27 36.27 0 0 1 4.862.432c.13.02.247.09.323.195a.451.451 0 0 1 .078.357c-.857 4.133-2.407 8.633-4.865 12.194z" fill="#27A845"/></g></svg>